<?xml version="1.0" encoding="utf-8"?>
<!-- Generator: Adobe Illustrator 25.4.1, SVG Export Plug-In . SVG Version: 6.00 Build 0)  -->
<svg version="1.1" id="Layer_1" xmlns="http://www.w3.org/2000/svg" xmlns:xlink="http://www.w3.org/1999/xlink" x="0px" y="0px"
	 viewBox="0 0 512 512" style="enable-background:new 0 0 512 512;" xml:space="preserve">
<style type="text/css">
	.st0{fill:#E57925;}
</style>
<g transform="translate(0.000000,512.000000) scale(0.100000,-0.100000)">
	<path class="st0" d="M2435,4854c-337-26-623-101-894-235C837,4271,368,3608,269,2822c-15-121-15-417,0-537c58-451,241-871,529-1215
		c367-438,902-726,1487-801c120-15,416-15,540,0c1062,133,1879,949,2016,2016c6,50,12,171,12,270s-6,221-12,270
		c-78,606-383,1155-847,1525c-330,263-755,442-1159,489C2730,4851,2507,4859,2435,4854z M2990,4735c0-11,11-15,40-15
		c40,0,159-34,255-72c28-11,64-23,81-28c17-4,44-14,60-23s67-34,114-57c47-22,94-46,105-53c415-246,706-553,903-952
		c19-38,45-91,58-117s24-56,24-65c0-10,12-40,25-68c14-27,25-60,25-72s9-45,20-73s23-75,26-105c5-37,11-55,20-55c12,0,14-74,14-430
		s-2-430-14-430c-9,0-15-18-20-55c-3-30-15-77-26-105s-20-61-20-73s-11-44-25-72c-13-27-25-58-25-68s-9-35-20-55
		c-10-20-37-73-58-117c-152-309-387-597-642-785c-18-14-45-34-59-45c-67-53-193-128-316-187c-44-22-97-48-117-59c-20-10-45-19-55-19
		s-35-9-56-20c-21-12-57-25-80-30s-67-18-97-29s-74-20-97-21c-31,0-43-4-43-15c0-13-54-15-430-15c-356,0-430,2-430,14
		c0,9-18,15-55,20c-30,3-77,15-105,26s-61,20-73,20s-44,11-72,25c-27,13-58,25-69,25c-10,0-35,9-55,19c-20,11-74,38-121,61
		s-105,54-130,70s-55,34-68,40c-49,21-238,167-337,259c-133,125-304,332-370,448c-9,16-27,48-41,73c-15,25-42,77-61,115
		c-20,39-46,91-59,117s-24,56-24,65c0,10-12,41-25,68c-14,28-25,61-25,75s-9,45-21,69c-11,25-22,71-26,103c-4,39-10,58-19,58
		c-12,0-14,74-14,430s2,430,14,430c9,0,15,19,19,58c4,33,16,80,27,106s20,57,20,69s11,46,25,75c14,30,25,60,25,68c0,14,11,37,82,180
		c169,337,403,608,716,833c40,28,83,56,95,62c12,5,42,23,67,39s83,47,130,70c141,69,168,80,275,115c146,48,177,56,223,62
		c34,4,52,10,52,19c0,12,74,14,430,14C2936,4750,2990,4748,2990,4735z"/>
	<path class="st0" d="M2440,4534c-25-3-79-11-120-19c-41-7-104-17-140-21c-36-3-87-15-113-25c-26-11-60-19-75-19s-49-12-77-25
		c-27-14-58-25-68-25c-17,0-95-36-174-80c-10-5-34-17-53-25c-63-28-106-53-119-69c-8-9-19-16-26-16c-33,0-298-229-398-345
		c-104-119-177-215-177-230c0-6-8-19-18-28s-44-69-76-134s-67-134-77-154s-19-44-19-52s-11-39-25-69c-14-29-25-65-25-80s-9-49-19-76
		c-11-27-23-78-26-113c-4-35-14-100-22-144c-22-108-22-362,0-470c8-44,18-109,22-144c3-35,15-86,26-113c10-27,19-61,19-76
		s11-51,25-80c14-30,25-60,25-68c0-15,15-48,85-184c21-41,46-91,56-111c10-19,25-41,33-49c9-7,16-18,16-25c0-30,226-295,328-385
		c87-76,219-178,247-191c11-5,48-27,82-48c35-22,73-43,85-47c13-3,35-15,50-25c14-11,31-19,37-19c5,0,31-11,57-25s55-25,64-25
		c10,0,42-11,72-25c29-14,63-25,75-25s44-8,70-19c26-10,77-22,113-25c36-4,101-14,145-23c53-11,131-17,235-17s182,6,235,17
		c44,9,109,19,145,23c36,3,85,14,110,24c25,9,65,20,88,24c24,4,61,15,83,26c21,11,46,20,55,20s37,11,63,24c25,13,73,37,106,53
		c53,26,99,52,206,115c95,57,288,222,374,322c33,37,65,73,70,80c16,18,119,159,132,181c68,114,79,134,160,297c12,26,23,56,23,66
		s9,36,20,57c11,22,23,58,27,80c3,22,14,61,24,87s21,78,24,115c4,37,14,102,23,143c21,101,21,356-1,465c-8,44-18,109-22,144
		c-3,35-15,86-26,113c-10,27-19,61-19,76s-12,50-25,77c-14,28-25,58-25,69c0,10-9,35-19,55c-11,20-36,70-55,111
		c-20,41-52,100-71,130s-39,64-44,75c-14,31-115,161-189,245c-88,100-327,305-384,330c-13,6-43,24-68,40s-83,47-130,70
		s-101,50-121,61c-20,10-44,19-52,19s-39,11-69,25c-29,14-65,25-80,25s-49,9-75,19c-27,10-80,22-118,26c-39,4-100,13-137,21
		C2727,4530,2516,4541,2440,4534z M2660,3594c30-14,78-37,106-50s56-24,62-24c7,0,33-11,59-24c27-14,73-36,103-49
		c150-68,178-80,211-98c20-10,45-19,55-19c11,0,37-12,59-25c22-14,47-25,56-25s27-8,40-19c13-10,35-22,49-26c27-8,112-45,170-75
		c19-10,49-21,67-25c17-3,37-13,44-21c6-8,31-19,55-25s49-17,55-25s17-14,24-14c6,0,32-11,57-24c24-13,55-27,69-31c13-4,49-18,79-32
		s73-33,95-43c192-87,215-105,215-177c0-56-11-77-58-108c-20-14-51-35-68-47c-18-13-96-67-175-121c-79-53-155-105-169-114
		c-14-10-38-28-53-40c-35-28-42-28-67-3c-17,17-20,33-20,109c0,143-47,241-152,317c-27,19-51,34-56,34c-4,0-24,9-44,20
		c-34,18-58,25-213,64c-146,37-357,51-755,51c-479,0-627-14-879-82c-30-8-64-21-75-28c-12-7-32-16-45-20c-37-11-113-69-147-112
		c-47-58-74-148-74-244c0-105-10-123-61-115l-39,6v-171v-171l45-50c37-42,45-57,46-92c2-91-4-120-39-184c-19-37-44-83-54-102
		c-41-77-74-123-93-130c-29-11-64,6-77,37c-7,15-18,35-24,43c-7,9-38,64-69,123c-51,100-55,112-55,177c0,67,1,71,45,125l45,55
		l-2,257l-3,256l-55,39c-30,21-86,59-123,85c-85,58-97,75-97,138c0,72,16,85,210,172c25,11,70,32,101,47c31,14,60,26,64,26
		c5,0,38,14,74,31c36,16,84,38,106,48s60,27,85,38c25,12,70,32,100,45c30,14,80,37,111,52c31,14,60,26,64,26c5,0,38,14,74,31
		c62,29,92,43,194,88c23,10,72,33,109,50s70,31,74,31s32,12,63,26c53,25,79,37,196,90c28,12,75,34,105,48
		C2531,3628,2588,3628,2660,3594z M3195,2733c50-12,113-26,140-31c115-24,207-73,260-139c29-37,30-40,33-172c2-73,1-144-2-157
		c-9-34-48-41-89-15c-19,12-70,27-114,35s-89,19-101,25c-11,6-64,13-118,16c-55,4-146,13-204,22c-150,23-730,23-880,0
		c-58-9-149-18-204-22c-54-3-107-10-118-16c-12-6-57-17-101-25s-95-23-114-35c-41-26-80-19-89,15c-3,13-4,84-2,157
		c3,132,4,135,33,172c54,68,142,115,260,139c28,5,82,17,120,26c117,26,211,30,715,28C3071,2754,3111,2752,3195,2733z M2855,2180
		c163-6,282-14,320-23c33-8,92-18,130-22c39-4,86-14,105-21c19-8,54-19,77-24c23-6,62-24,87-41c46-31,63-62,52-97
		c-8-24-91-78-136-87c-19-4-57-16-83-26c-26-11-66-19-88-19s-86-10-142-22c-98-22-120-23-617-23s-519,1-617,23c-56,12-120,22-142,22
		s-62,8-88,19c-26,10-64,22-83,26c-45,9-128,63-136,87c-7,22,4,78,15,78c5,0,25,11,45,25c21,14,56,29,79,35c23,5,58,16,77,24
		c19,7,67,17,105,21c39,4,99,14,135,23c41,10,143,18,280,22C2548,2190,2572,2190,2855,2180z"/>
	<path class="st0" d="M5030,905c-10-12-10-18,0-30c7-8,18-15,25-15s18,7,25,15c10,12,10,18,0,30c-7,8-18,15-25,15S5037,913,5030,905
		z"/>
</g>
</svg>
