<?xml version="1.0" encoding="utf-8"?>
<!-- Generator: Adobe Illustrator 25.4.1, SVG Export Plug-In . SVG Version: 6.00 Build 0)  -->
<svg version="1.1" id="Layer_1" xmlns="http://www.w3.org/2000/svg" xmlns:xlink="http://www.w3.org/1999/xlink" x="0px" y="0px"
	 viewBox="0 0 512 512" style="enable-background:new 0 0 512 512;" xml:space="preserve">
<style type="text/css">
	.st0{fill:#E47925;}
</style>
<g transform="translate(0.000000,512.000000) scale(0.100000,-0.100000)">
	<path class="st0" d="M2435,4854c-337-26-623-101-894-235C837,4271,368,3608,269,2822c-15-121-15-417,0-537c58-451,241-871,529-1215
		c367-438,902-726,1487-801c120-15,416-15,540,0c1062,133,1879,949,2016,2016c6,50,12,171,12,270s-6,221-12,270
		c-78,606-383,1155-847,1525c-330,263-755,442-1159,489C2730,4851,2507,4859,2435,4854z M2940,4731c482-89,880-304,1220-657
		c306-318,499-699,581-1144c27-147,37-450,20-611c-45-430-222-850-496-1179c-83-100-272-282-365-351c-291-218-599-353-965-421
		c-104-20-153-23-375-23c-281,0-379,13-603,76C1225,627,637,1215,431,1947c-63,224-76,322-76,603c0,222,3,271,23,375
		c85,454,275,830,582,1149c340,354,751,575,1220,655c164,29,171,29,420,26C2777,4753,2849,4748,2940,4731z"/>
	<path class="st0" d="M2440,4574c-885-62-1621-669-1840-1518c-46-177-62-311-62-506c0-416,111-783,343-1130
		c318-474,817-788,1394-876c147-22,423-22,570,0c819,125,1470,708,1675,1500c46,177,62,311,62,506s-16,329-62,506
		c-204,789-867,1384-1670,1498C2737,4570,2530,4580,2440,4574z M2154,3805c3-8,12-15,20-15c18,0,133-61,193-102c24-16,75-60,113-98
		c39-39,75-70,80-70s40,31,78,69c94,93,259,201,308,201c8,0,17,7,20,15c5,13,40,15,230,15c140,0,224-4,224-10c0-5,11-12,25-16
		c13-3,48-19,77-35c29-15,71-38,92-50c37-20,131-108,188-176c38-45,118-195,118-221c0-12,5-22,10-22c6,0,10-87,10-240s-4-240-10-240
		c-5,0-10-12-10-27c0-16-9-48-20-72s-20-48-20-55c0-6-8-27-19-46c-10-19-22-46-26-58c-9-31-108-203-153-267c-90-127-191-253-287-354
		c-183-194-466-451-639-579c-39-29-72-57-74-62c-4-12-239-14-244-2c-1,5-64,57-138,117c-111,89-212,173-286,240c-6,6-60,57-120,115
		c-296,287-486,537-619,812c-50,104-46,108,90,108h103l49-39c26-21,68-60,93-86s63-60,84-76c86-63,112-39,251,238
		c98,194,113,218,134,218c20,0,26-7,33-35c5-19,13-43,18-52c5-10,14-34,19-55c9-36,27-92,57-173c16-44,41-122,59-180
		c14-48,27-86,55-165c10-27,21-62,24-76c8-37,41-75,75-87c39-14,87,12,111,59c32,61,60,126,60,138c0,6,9,28,20,48c11,21,20,45,20,53
		s7,24,15,34c8,11,15,27,15,36c0,8,8,31,18,50c11,19,22,47,25,61c4,15,23,41,42,58l36,31h137h138l30-31c42-45,115-79,166-78
		c25,0,66,11,98,27c49,24,59,34,88,91c38,76,39,95,10,164c-28,67-43,84-101,114c-86,43-169,27-254-49l-43-38h-132
		c-118,0-140-3-199-25c-91-35-139-79-181-167c-19-40-39-86-42-103c-19-78-69-41-102,75c-18,64-44,140-59,175c-7,17-16,46-20,65
		s-11,40-16,45c-4,6-12,29-18,50c-11,45-35,116-63,187c-10,26-18,55-18,66c0,31-66,92-100,92c-54,0-80-37-214-307
		c-70-142-131-265-135-273c-16-30-48-22-107,29c-83,71-151,91-310,91c-67,0-129,3-138,6c-14,5-16,33-16,205c0,126,4,199,10,199
		s10,10,10,23c1,37,93,195,154,263c32,36,81,82,110,104c56,42,169,104,210,114c14,3,26,11,26,16c0,6,84,10,224,10
		C2114,3820,2149,3818,2154,3805z"/>
	<path class="st0" d="M5030,905c-10-12-10-18,0-30c7-8,18-15,25-15s18,7,25,15c10,12,10,18,0,30c-7,8-18,15-25,15S5037,913,5030,905
		z"/>
</g>
</svg>
