<?xml version="1.0" encoding="utf-8"?>
<!-- Generator: Adobe Illustrator 25.4.1, SVG Export Plug-In . SVG Version: 6.00 Build 0)  -->
<svg version="1.1" id="Layer_1" xmlns="http://www.w3.org/2000/svg" xmlns:xlink="http://www.w3.org/1999/xlink" x="0px" y="0px"
	 viewBox="0 0 512 512" style="enable-background:new 0 0 512 512;" xml:space="preserve">
<style type="text/css">
	.st0{fill:#E47925;}
</style>
<g transform="translate(0.000000,512.000000) scale(0.100000,-0.100000)">
	<path class="st0" d="M2435,4854c-337-26-623-101-894-235C837,4271,368,3608,269,2822c-15-121-15-417,0-537c58-451,241-871,529-1215
		c367-438,902-726,1487-801c120-15,416-15,540,0c1062,133,1879,949,2016,2016c6,50,12,171,12,270s-6,221-12,270
		c-78,606-383,1155-847,1525c-330,263-755,442-1159,489C2730,4851,2507,4859,2435,4854z M2852,4754c899-116,1640-776,1863-1659
		c88-346,88-734,0-1080c-200-794-816-1410-1610-1610c-346-88-734-88-1080,0C1142,628,482,1369,366,2268c-21,159-21,415,0,574
		c105,811,659,1506,1429,1793c131,49,333,100,470,118C2416,4773,2698,4774,2852,4754z"/>
	<path class="st0" d="M2440,4614c-983-70-1767-794-1916-1769c-22-148-22-432,0-580c70-454,268-847,586-1165s711-516,1165-586
		c148-22,432-22,580,0c454,70,847,268,1165,586c319,318,516,711,586,1165c22,148,22,432,0,580c-67,433-253,817-549,1130
		c-309,328-748,555-1197,619C2748,4610,2531,4620,2440,4614z M2683,3340c7-5,28-23,48-40c20-16,40-30,43-30c22,0,97-44,117-68
		c70-83,97-226,64-335c-13-43-13-52,1-87c15-36,15-44,0-86c-8-25-25-54-36-64s-34-44-50-76c-17-33-46-76-65-98c-30-33-35-45-35-88
		c0-27,7-62,15-77c14-28,85-79,155-113c130-62,160-78,199-102c132-84,221-223,221-348v-48h-800h-800v48c0,26,8,70,18,97
		c48,137,135,225,307,307c236,114,265,140,265,234c0,45-5,57-35,90c-19,22-49,66-65,98c-16,33-39,65-49,73c-11,7-27,36-36,63
		c-15,46-15,54-2,89c12,30,13,46,5,77c-42,157,8,331,122,421c30,24,65,46,78,49c12,4,22,10,22,15C2390,3353,2668,3352,2683,3340z
		 M2020,3165c9-11,10-25,2-58c-7-25-11-127-10-238c1-225,4-236,92-368c31-46,56-87,56-91c0-12-67-101-87-115c-11-7-55-32-98-55
		c-149-79-248-170-303-282c-31-64-62-186-62-245v-33h-180h-180v81c0,72,3,88,30,134c52,91,107,135,272,216c110,54,141,78,164,121
		c20,38,18,50-16,93c-16,20-43,65-60,99c-17,33-42,79-55,101c-27,43-32,94-13,124c9,15,9,28,0,59c-18,61-15,171,8,236
		c27,79,55,115,109,139c25,11,54,29,64,40c39,46,68,56,163,56C1986,3180,2011,3176,2020,3165z M3318,3163c15-9,36-26,47-38
		s41-31,66-42c54-24,82-60,109-139c23-65,26-175,8-236c-9-31-9-44,0-59c19-30,14-81-13-124c-13-22-38-68-55-101c-17-34-44-79-60-99
		c-35-43-36-52-14-98c17-35,77-79,154-112c131-56,232-135,278-217c15-26,30-48,35-48c4,0,7-38,7-85v-85h-185h-185v33
		c0,59-31,181-62,245c-55,112-154,203-303,282c-43,23-87,48-98,55c-20,14-87,103-87,115c0,4,25,45,56,91c88,131,91,145,93,359
		c0,105-4,208-11,237c-16,76-7,83,104,83C3268,3180,3298,3176,3318,3163z"/>
	<path class="st0" d="M5030,905c-10-12-10-18,0-30c7-8,18-15,25-15s18,7,25,15c10,12,10,18,0,30c-7,8-18,15-25,15S5037,913,5030,905
		z"/>
</g>
</svg>
